<svg width="20" height="20" viewBox="0 0 20 20" fill="none" xmlns="http://www.w3.org/2000/svg">
<path d="M17.083 6.06667V4.16667C17.083 3.25 16.333 2.5 15.4163 2.5H3.74967C2.82467 2.5 2.08301 3.25 2.08301 4.16667V15.8333C2.08301 16.75 2.82467 17.5 3.74967 17.5H15.4163C16.333 17.5 17.083 16.75 17.083 15.8333V13.9333C17.5747 13.6417 17.9163 13.1167 17.9163 12.5V7.5C17.9163 6.88333 17.5747 6.35833 17.083 6.06667ZM16.2497 7.5V12.5H10.4163V7.5H16.2497ZM3.74967 15.8333V4.16667H15.4163V5.83333H10.4163C9.49967 5.83333 8.74967 6.58333 8.74967 7.5V12.5C8.74967 13.4167 9.49967 14.1667 10.4163 14.1667H15.4163V15.8333H3.74967Z" fill="#FAFAFA"/>
<path d="M12.9163 11.25C13.6067 11.25 14.1663 10.6904 14.1663 10C14.1663 9.30964 13.6067 8.75 12.9163 8.75C12.226 8.75 11.6663 9.30964 11.6663 10C11.6663 10.6904 12.226 11.25 12.9163 11.25Z" fill="#FAFAFA"/>
</svg>
